<svg width="64" height="65" viewBox="0 0 64 65" fill="none" xmlns="http://www.w3.org/2000/svg">
<g clip-path="url(#clip0_17208_277)">
<path d="M48.8769 32.3224H53.3411C54.3504 32.3224 55.1715 31.5013 55.1715 30.492V26.0278C55.1715 25.0185 54.3504 24.1974 53.3411 24.1974H48.8769C47.8676 24.1974 47.0465 25.0185 47.0465 26.0278V30.492C47.0465 31.5013 47.8676 32.3224 48.8769 32.3224ZM48.9215 26.0724H53.2965V30.4474H48.9215V26.0724ZM48.8769 44.1974H53.3411C54.3504 44.1974 55.1715 43.3763 55.1715 42.367V37.9027C55.1715 36.8935 54.3504 36.0724 53.3411 36.0724H48.8769C47.8676 36.0724 47.0465 36.8935 47.0465 37.9027V42.367C47.0465 43.3763 47.8676 44.1974 48.8769 44.1974ZM48.9215 37.9474H53.2965V42.3224H48.9215V37.9474ZM36.1374 32.3224H40.6016C41.6109 32.3224 42.432 31.5013 42.432 30.492V26.0278C42.432 25.0185 41.6109 24.1974 40.6016 24.1974H36.1374C35.1281 24.1974 34.307 25.0185 34.307 26.0278V30.492C34.307 31.5013 35.1281 32.3224 36.1374 32.3224ZM36.182 26.0724H40.557V30.4474H36.182V26.0724ZM15.1226 47.3906H10.6584C9.64912 47.3906 8.828 48.2118 8.828 49.221V53.6852C8.828 54.6945 9.64912 55.5156 10.6584 55.5156H15.1226C16.1319 55.5156 16.953 54.6945 16.953 53.6852V49.221C16.953 48.2118 16.1319 47.3906 15.1226 47.3906ZM15.078 53.6406H10.703V49.2656H15.078V53.6406ZM15.1226 24.1974H10.6584C9.64912 24.1974 8.828 25.0185 8.828 26.0278V30.492C8.828 31.5013 9.64912 32.3224 10.6584 32.3224H15.1226C16.1319 32.3224 16.953 31.5013 16.953 30.492V26.0278C16.953 25.0184 16.1319 24.1974 15.1226 24.1974ZM15.078 30.4474H10.703V26.0724H15.078V30.4474ZM36.1374 43.919H40.6016C41.6109 43.919 42.432 43.0979 42.432 42.0886V37.6244C42.432 36.6151 41.6109 35.794 40.6016 35.794H36.1374C35.1281 35.794 34.307 36.6151 34.307 37.6244V42.0886C34.307 43.0979 35.1281 43.919 36.1374 43.919ZM36.182 37.669H40.557V42.044H36.182V37.669ZM56.1026 5.17487H52.0944V3.7415C52.0944 2.1695 50.8155 0.890625 49.2435 0.890625H48.813C47.2411 0.890625 45.9622 2.1695 45.9622 3.7415V5.17487H18.0373V3.7415C18.0373 2.1695 16.7584 0.890625 15.1864 0.890625H14.7559C13.1839 0.890625 11.905 2.1695 11.905 3.7415V5.17487H7.89687C5.30875 5.17487 3.20312 7.2805 3.20312 9.86862V60.2031C3.20312 62.7879 5.30588 64.8906 7.89062 64.8906H56.1091C58.6939 64.8906 60.7966 62.7879 60.7966 60.2031V9.86862C60.7965 7.2805 58.6909 5.17487 56.1026 5.17487ZM47.8372 3.7415C47.8372 3.20337 48.275 2.76562 48.8131 2.76562H49.2436C49.7817 2.76562 50.2195 3.20337 50.2195 3.7415V5.17487H47.8372V3.7415ZM13.7801 3.7415C13.7801 3.20337 14.2179 2.76562 14.756 2.76562H15.1865C15.7246 2.76562 16.1624 3.20337 16.1624 3.7415V5.17487H13.7803V3.7415H13.7801ZM58.9215 60.2031C58.9215 61.754 57.6599 63.0156 56.109 63.0156H7.8905C6.33963 63.0156 5.078 61.754 5.078 60.2031V60.1973C5.8635 60.7891 6.83987 61.1406 7.89687 61.1406H45.9072C47.161 61.1406 48.3397 60.6524 49.2262 59.7658L58.9215 50.0705V60.2031ZM48.2696 58.0708C48.3431 57.7674 48.3831 57.451 48.3831 57.1254V50.8674C48.3831 49.6874 49.3432 48.7272 50.5234 48.7272H56.7812C57.1069 48.7272 57.4232 48.6873 57.7266 48.6138L48.2696 58.0708ZM58.9215 18.5724H18.9748C18.457 18.5724 18.0373 18.9921 18.0373 19.5099C18.0373 20.0276 18.457 20.4474 18.9748 20.4474H58.9215V44.7121C58.9215 45.8923 57.9614 46.8524 56.7812 46.8524H50.5234C48.3094 46.8524 46.5081 48.6536 46.5081 50.8675V57.1255C46.5081 58.3056 45.548 59.2658 44.368 59.2658H7.89687C6.34262 59.2658 5.07812 58.0013 5.07812 56.4469V20.4474H15.2248C15.7425 20.4474 16.1623 20.0276 16.1623 19.5099C16.1623 18.9921 15.7425 18.5724 15.2248 18.5724H5.078V9.86862C5.078 8.31437 6.3425 7.04987 7.89675 7.04987H11.905V9.80637C11.905 11.3784 13.1839 12.6573 14.7559 12.6573C15.2736 12.6573 15.6934 12.2375 15.6934 11.7198C15.6934 11.202 15.2736 10.7823 14.7559 10.7823C14.2178 10.7823 13.78 10.3445 13.78 9.80637V7.04987H45.9622V9.80637C45.9622 11.3784 47.2411 12.6573 48.8131 12.6573C49.3309 12.6573 49.7506 12.2375 49.7506 11.7198C49.7506 11.202 49.3309 10.7823 48.8131 10.7823C48.275 10.7823 47.8372 10.3445 47.8372 9.80637V7.04987H56.1027C57.657 7.04987 58.9215 8.31437 58.9215 9.86862V18.5724ZM15.1226 35.794H10.6584C9.64912 35.794 8.828 36.6151 8.828 37.6244V42.0886C8.828 43.0979 9.64912 43.919 10.6584 43.919H15.1226C16.1319 43.919 16.953 43.0979 16.953 42.0886V37.6244C16.953 36.615 16.1319 35.794 15.1226 35.794ZM15.078 42.044H10.703V37.669H15.078V42.044ZM23.3979 32.3224H27.8621C28.8714 32.3224 29.6925 31.5013 29.6925 30.492V26.0278C29.6925 25.0185 28.8714 24.1974 27.8621 24.1974H23.3979C22.3886 24.1974 21.5675 25.0185 21.5675 26.0278V30.492C21.5675 31.5013 22.3886 32.3224 23.3979 32.3224ZM23.4425 26.0724H27.8175V30.4474H23.4425V26.0724ZM36.1809 53.6406C36.1576 53.1435 35.7472 52.7477 35.2444 52.7477C34.7266 52.7477 34.3069 53.1675 34.3069 53.6852C34.3069 54.6945 35.128 55.5156 36.1372 55.5156H40.6015C41.6107 55.5156 42.4319 54.6945 42.4319 53.6852V49.221C42.4319 48.2118 41.6107 47.3906 40.6015 47.3906H36.1372C35.128 47.3906 34.3069 48.2118 34.3069 49.221V50.5085C34.3069 51.0262 34.7266 51.446 35.2444 51.446C35.7621 51.446 36.1819 51.0262 36.1819 50.5085V49.2656H40.5569V53.6406H36.1809ZM23.3979 43.919H27.8621C28.8714 43.919 29.6925 43.0979 29.6925 42.0886V37.6244C29.6925 36.6151 28.8714 35.794 27.8621 35.794H23.3979C22.3886 35.794 21.5675 36.6151 21.5675 37.6244V42.0886C21.5675 43.0979 22.3886 43.919 23.3979 43.919ZM23.4425 37.669H27.8175V42.044H23.4425V37.669ZM23.3979 55.5156H27.8621C28.8714 55.5156 29.6925 54.6945 29.6925 53.6852V49.221C29.6925 48.2118 28.8714 47.3906 27.8621 47.3906H23.3979C22.3886 47.3906 21.5675 48.2118 21.5675 49.221V53.6852C21.5675 54.6945 22.3886 55.5156 23.3979 55.5156ZM23.4425 49.2656H27.8175V53.6406H23.4425V49.2656Z" fill="#CDB494"/>
</g>
<defs>
<clipPath id="clip0_17208_277">
<rect width="64" height="64" fill="white" transform="translate(0 0.890625)"/>
</clipPath>
</defs>
</svg>
