<svg width="62" height="63" viewBox="0 0 62 63" fill="none" xmlns="http://www.w3.org/2000/svg">
<g clip-path="url(#clip0_17209_286)">
<path d="M25.2021 4.76562H12.0171C11.3736 4.77616 10.7398 4.92446 10.1584 5.20054C9.57705 5.47662 9.06158 5.87406 8.64672 6.36611C8.23186 6.85816 7.92725 7.43338 7.7534 8.05306C7.57955 8.67273 7.5405 9.32246 7.63887 9.95849C7.64143 10.2137 7.74462 10.4576 7.92602 10.6372C8.10742 10.8168 8.35236 10.9175 8.60761 10.9175C8.86286 10.9175 9.10779 10.8168 9.28917 10.6372C9.47056 10.4576 9.57373 10.2137 9.57627 9.95843C9.36099 8.37306 10.2629 6.68653 12.0172 6.70317H21.4718V9.34638C21.473 10.2804 21.8446 11.1758 22.5051 11.8363C23.1655 12.4967 24.061 12.8683 24.995 12.8694H27.643V29.8273C27.6424 30.4745 27.385 31.0949 26.9274 31.5525C26.4698 32.0101 25.8493 32.2675 25.2022 32.2681H12.0171C11.3699 32.2675 10.7495 32.0101 10.2919 31.5525C9.83426 31.0949 9.57691 30.4745 9.5763 29.8273V13.8335C9.57253 13.579 9.4688 13.3363 9.28754 13.1577C9.10627 12.9791 8.86202 12.879 8.60755 12.879C8.35309 12.879 8.10883 12.9791 7.92757 13.1577C7.7463 13.3363 7.64258 13.579 7.6388 13.8335V29.8273C7.64008 30.9881 8.10177 32.101 8.92259 32.9218C9.7434 33.7426 10.8563 34.2043 12.0171 34.2056H25.2021C26.3629 34.2043 27.4758 33.7426 28.2966 32.9218C29.1174 32.101 29.5791 30.9881 29.5804 29.8273V9.14392C29.5791 7.98312 29.1175 6.87022 28.2966 6.04941C27.4758 5.22859 26.3629 4.7669 25.2021 4.76562ZM27.6429 10.9319H24.995C24.5746 10.9314 24.1716 10.7642 23.8744 10.467C23.5772 10.1697 23.4099 9.76674 23.4094 9.34638V6.70312H25.2022C25.8493 6.70373 26.4698 6.96108 26.9274 7.41869C27.385 7.87629 27.6424 8.49677 27.643 9.14392L27.6429 10.9319Z" fill="#CDB494"/>
<path d="M12.8145 11.4473H19.065C19.3196 11.4437 19.5625 11.34 19.7412 11.1587C19.92 10.9774 20.0202 10.7331 20.0202 10.4785C20.0202 10.2239 19.92 9.97958 19.7412 9.7983C19.5625 9.61701 19.3196 9.51337 19.065 9.50977H12.8145C12.56 9.51337 12.3171 9.61701 12.1383 9.7983C11.9596 9.97958 11.8594 10.2239 11.8594 10.4785C11.8594 10.7331 11.9596 10.9774 12.1383 11.1587C12.3171 11.34 12.56 11.4437 12.8145 11.4473Z" fill="#CDB494"/>
<path d="M12.8145 15.9512H22.31C22.5645 15.9476 22.8074 15.8439 22.9862 15.6626C23.1649 15.4814 23.2651 15.237 23.2651 14.9824C23.2651 14.7278 23.1649 14.4835 22.9862 14.3022C22.8074 14.1209 22.5645 14.0173 22.31 14.0137H12.8145C12.56 14.0173 12.3171 14.1209 12.1383 14.3022C11.9596 14.4835 11.8594 14.7278 11.8594 14.9824C11.8594 15.237 11.9596 15.4814 12.1383 15.6626C12.3171 15.8439 12.56 15.9476 12.8145 15.9512Z" fill="#CDB494"/>
<path d="M12.8145 20.4551H19.908C20.1626 20.4515 20.4055 20.3478 20.5842 20.1665C20.7629 19.9853 20.8631 19.7409 20.8631 19.4863C20.8631 19.2317 20.7629 18.9874 20.5842 18.8061C20.4055 18.6248 20.1626 18.5212 19.908 18.5176H12.8145C12.56 18.5212 12.3171 18.6248 12.1383 18.8061C11.9596 18.9874 11.8594 19.2317 11.8594 19.4863C11.8594 19.7409 11.9596 19.9853 12.1383 20.1665C12.3171 20.3478 12.56 20.4515 12.8145 20.4551Z" fill="#CDB494"/>
<path d="M12.8145 24.957H22.0574C22.3119 24.9534 22.5548 24.8498 22.7336 24.6685C22.9123 24.4872 23.0125 24.2429 23.0125 23.9883C23.0125 23.7337 22.9123 23.4893 22.7336 23.3081C22.5548 23.1268 22.3119 23.0231 22.0574 23.0195H12.8145C12.56 23.0231 12.3171 23.1268 12.1383 23.3081C11.9596 23.4893 11.8594 23.7337 11.8594 23.9883C11.8594 24.2429 11.9596 24.4872 12.1383 24.6685C12.3171 24.8498 12.56 24.9534 12.8145 24.957Z" fill="#CDB494"/>
<path d="M12.8145 29.4609H23.4727C23.7273 29.4573 23.9702 29.3537 24.1489 29.1724C24.3276 28.9911 24.4278 28.7467 24.4278 28.4922C24.4278 28.2376 24.3276 27.9932 24.1489 27.812C23.9701 27.6307 23.7272 27.527 23.4727 27.5234H12.8145C12.56 27.527 12.3171 27.6307 12.1383 27.812C11.9596 27.9933 11.8594 28.2376 11.8594 28.4922C11.8594 28.7468 11.9596 28.9911 12.1383 29.1724C12.3171 29.3537 12.56 29.4573 12.8145 29.4609Z" fill="#CDB494"/>
<path d="M50.0118 29.5762H36.8268C36.0916 29.5761 35.3689 29.7662 34.7289 30.1279C34.0888 30.4897 33.5532 31.0107 33.174 31.6406C32.5867 32.7626 32.3349 34.0299 32.4485 35.2912C32.4485 35.5481 32.5505 35.7946 32.7322 35.9762C32.9139 36.1579 33.1603 36.26 33.4172 36.26C33.6742 36.26 33.9206 36.1579 34.1022 35.9762C34.2839 35.7946 34.386 35.5481 34.386 35.2912C34.2499 34.3756 34.3917 33.4403 34.7929 32.6062C35.0167 32.2716 35.3191 31.997 35.6737 31.8066C36.0284 31.6161 36.4243 31.5155 36.8268 31.5137H46.2816V34.1569C46.2828 35.0908 46.6544 35.9861 47.3149 36.6464C47.9753 37.3067 48.8707 37.6781 49.8047 37.679H52.4526V54.6379C52.452 55.285 52.1947 55.9055 51.7371 56.3631C51.2794 56.8207 50.659 57.078 50.0118 57.0786H36.8268C36.1796 57.078 35.5592 56.8207 35.1015 56.3631C34.6439 55.9055 34.3866 55.285 34.386 54.6379V39.1662C34.3824 38.9117 34.2787 38.6688 34.0974 38.49C33.9162 38.3113 33.6718 38.2111 33.4172 38.2111C33.1627 38.2111 32.9183 38.3113 32.737 38.49C32.5557 38.6688 32.4521 38.9117 32.4485 39.1662V54.6379C32.4498 55.7987 32.9115 56.9116 33.7323 57.7324C34.5531 58.5532 35.666 59.0149 36.8268 59.0161H50.0118C51.1726 59.0149 52.2855 58.5532 53.1063 57.7324C53.9271 56.9116 54.3888 55.7987 54.3901 54.6379V33.9545C54.3888 32.7937 53.9271 31.6808 53.1063 30.86C52.2855 30.0391 51.1726 29.5775 50.0118 29.5762ZM52.4526 35.7415H49.8046C49.3844 35.7412 48.9814 35.5742 48.6841 35.2771C48.3869 34.9801 48.2196 34.5772 48.2191 34.1569V31.5137H50.0118C50.659 31.5143 51.2794 31.7716 51.737 32.2292C52.1946 32.6868 52.452 33.3073 52.4526 33.9545V35.7415Z" fill="#CDB494"/>
<path d="M37.627 36.2578H43.8775C44.1321 36.2542 44.375 36.1506 44.5537 35.9693C44.7325 35.788 44.8327 35.5436 44.8327 35.2891C44.8327 35.0345 44.7325 34.7901 44.5537 34.6088C44.375 34.4276 44.1321 34.3239 43.8775 34.3203H37.627C37.3725 34.3239 37.1296 34.4276 36.9508 34.6088C36.7721 34.7901 36.6719 35.0345 36.6719 35.289C36.6719 35.5436 36.7721 35.788 36.9508 35.9693C37.1295 36.1506 37.3724 36.2542 37.627 36.2578Z" fill="#CDB494"/>
<path d="M37.627 40.7617H47.1225C47.377 40.7581 47.6199 40.6545 47.7987 40.4732C47.9774 40.2919 48.0776 40.0475 48.0776 39.793C48.0776 39.5384 47.9774 39.294 47.7987 39.1128C47.6199 38.9315 47.377 38.8278 47.1225 38.8242H37.627C37.3725 38.8278 37.1296 38.9315 36.9508 39.1128C36.7721 39.294 36.6719 39.5384 36.6719 39.793C36.6719 40.0475 36.7721 40.2919 36.9508 40.4732C37.1296 40.6545 37.3725 40.7581 37.627 40.7617Z" fill="#CDB494"/>
<path d="M37.627 45.2637H44.7205C44.975 45.2601 45.2179 45.1564 45.3967 44.9751C45.5754 44.7939 45.6756 44.5495 45.6756 44.2949C45.6756 44.0403 45.5754 43.796 45.3967 43.6147C45.2179 43.4334 44.975 43.3298 44.7205 43.3262H37.627C37.3725 43.3298 37.1296 43.4334 36.9508 43.6147C36.7721 43.796 36.6719 44.0403 36.6719 44.2949C36.6719 44.5495 36.7721 44.7939 36.9508 44.9751C37.1296 45.1564 37.3725 45.2601 37.627 45.2637Z" fill="#CDB494"/>
<path d="M37.627 49.7676H46.8699C47.1244 49.764 47.3673 49.6603 47.5461 49.479C47.7248 49.2978 47.825 49.0534 47.825 48.7988C47.825 48.5442 47.7248 48.2999 47.5461 48.1186C47.3673 47.9373 47.1244 47.8337 46.8699 47.8301H37.627C37.3725 47.8337 37.1296 47.9373 36.9508 48.1186C36.7721 48.2999 36.6719 48.5442 36.6719 48.7988C36.6719 49.0534 36.7721 49.2978 36.9508 49.479C37.1296 49.6603 37.3725 49.764 37.627 49.7676Z" fill="#CDB494"/>
<path d="M37.627 54.2715H48.2851C48.5397 54.2679 48.7826 54.1642 48.9614 53.983C49.1401 53.8017 49.2403 53.5573 49.2403 53.3027C49.2403 53.0482 49.1401 52.8038 48.9614 52.6225C48.7826 52.4412 48.5397 52.3376 48.2851 52.334H37.627C37.3725 52.3376 37.1296 52.4412 36.9508 52.6225C36.7721 52.8038 36.6719 53.0482 36.6719 53.3027C36.6719 53.5573 36.7721 53.8017 36.9508 53.983C37.1296 54.1642 37.3725 54.2679 37.627 54.2715Z" fill="#CDB494"/>
<path d="M25.5884 50.2883H15.8622C15.6155 50.288 15.379 50.1898 15.2046 50.0152C15.0302 49.8407 14.9323 49.6041 14.9322 49.3574V40.8128L17.1535 43.0341C17.3364 43.2099 17.5809 43.3069 17.8345 43.3044C18.0881 43.3019 18.3306 43.2 18.51 43.0206C18.6893 42.8413 18.7912 42.5988 18.7937 42.3451C18.7962 42.0915 18.6991 41.847 18.5233 41.6642L15.3324 38.4732C14.9685 38.1112 14.4761 37.908 13.9628 37.9082C13.4495 37.9084 12.9572 38.1119 12.5936 38.4742L9.40348 41.6643C9.22757 41.8471 9.1304 42.0917 9.13286 42.3454C9.13531 42.5991 9.23719 42.8417 9.4166 43.0211C9.59601 43.2005 9.83863 43.3023 10.0923 43.3048C10.346 43.3072 10.5906 43.21 10.7734 43.0341L12.9947 40.8128V49.3574C12.9954 50.1178 13.2978 50.8468 13.8353 51.3846C14.3729 51.9223 15.1018 52.2248 15.8622 52.2258H25.5884C25.8432 52.2226 26.0865 52.1191 26.2656 51.9378C26.4446 51.7565 26.545 51.5119 26.545 51.2571C26.545 51.0022 26.4446 50.7577 26.2656 50.5763C26.0865 50.395 25.8432 50.2915 25.5884 50.2883Z" fill="#CDB494"/>
<path d="M36.4395 13.4922H46.1658C46.4125 13.4925 46.649 13.5907 46.8233 13.7653C46.9977 13.9398 47.0957 14.1764 47.0958 14.4231V22.9677L44.8744 20.7464C44.6916 20.5706 44.4471 20.4736 44.1935 20.4761C43.9398 20.4786 43.6973 20.5805 43.518 20.7599C43.3386 20.9392 43.2368 21.1817 43.2343 21.4353C43.2318 21.689 43.3288 21.9335 43.5046 22.1163L46.6956 25.3073C47.0595 25.6692 47.5519 25.8722 48.0652 25.8721C48.5784 25.8719 49.0707 25.6685 49.4344 25.3063L52.6245 22.1162C52.8003 21.9334 52.8974 21.6888 52.8949 21.4352C52.8924 21.1816 52.7905 20.939 52.6111 20.7596C52.4318 20.5803 52.1892 20.4784 51.9355 20.476C51.6819 20.4735 51.4374 20.5706 51.2546 20.7464L49.0333 22.9677V14.4231C49.0325 13.6627 48.7302 12.9337 48.1926 12.396C47.655 11.8582 46.9261 11.5557 46.1658 11.5547H36.4395C36.185 11.5583 35.9421 11.6619 35.7633 11.8432C35.5846 12.0245 35.4844 12.2689 35.4844 12.5234C35.4844 12.778 35.5846 13.0224 35.7633 13.2037C35.9421 13.3849 36.185 13.4886 36.4395 13.4922Z" fill="#CDB494"/>
<path d="M56.5 2.50003L5 62.25" stroke="#CDB494" stroke-width="2" stroke-linecap="round"/>
</g>
<defs>
<clipPath id="clip0_17209_286">
<rect width="62" height="62" fill="white" transform="translate(0 0.890625)"/>
</clipPath>
</defs>
</svg>
