<svg width="25" height="25" viewBox="0 0 25 25" fill="none" xmlns="http://www.w3.org/2000/svg">
<g clip-path="url(#clip0_17210_433)">
<path d="M12.9531 6.02344C12.162 6.02344 11.3886 6.25803 10.7308 6.69756C10.0731 7.13708 9.56036 7.7618 9.25761 8.4927C8.95486 9.22361 8.87564 10.0279 9.02999 10.8038C9.18433 11.5797 9.56529 12.2925 10.1247 12.8519C10.6841 13.4113 11.3968 13.7922 12.1728 13.9466C12.9487 14.1009 13.753 14.0217 14.4839 13.719C15.2148 13.4162 15.8395 12.9035 16.279 12.2457C16.7185 11.5879 16.9531 10.8146 16.9531 10.0234C16.9531 8.96257 16.5317 7.94516 15.7816 7.19501C15.0314 6.44486 14.014 6.02344 12.9531 6.02344ZM12.9531 12.0234C12.5576 12.0234 12.1709 11.9061 11.842 11.6864C11.5131 11.4666 11.2567 11.1543 11.1054 10.7888C10.954 10.4234 10.9144 10.0212 10.9916 9.63326C11.0687 9.24529 11.2592 8.88893 11.5389 8.60922C11.8186 8.32952 12.175 8.13904 12.5629 8.06187C12.9509 7.9847 13.353 8.0243 13.7185 8.17568C14.0839 8.32705 14.3963 8.5834 14.6161 8.9123C14.8358 9.2412 14.9531 9.62787 14.9531 10.0234C14.9531 10.5539 14.7424 11.0626 14.3673 11.4377C13.9923 11.8127 13.4836 12.0234 12.9531 12.0234Z" fill="#CDB494"/>
<path d="M12.9534 24.0235C12.1114 24.0278 11.2805 23.8303 10.5305 23.4475C9.78046 23.0648 9.13303 22.5079 8.64244 21.8235C4.83144 16.5665 2.89844 12.6145 2.89844 10.0765C2.89844 7.40973 3.9578 4.8522 5.84348 2.96653C7.72916 1.08085 10.2867 0.0214844 12.9534 0.0214844C15.6202 0.0214844 18.1777 1.08085 20.0634 2.96653C21.9491 4.8522 23.0084 7.40973 23.0084 10.0765C23.0084 12.6145 21.0754 16.5665 17.2644 21.8235C16.7738 22.5079 16.1264 23.0648 15.3764 23.4475C14.6263 23.8303 13.7955 24.0278 12.9534 24.0235ZM12.9534 2.20448C10.8659 2.20687 8.86445 3.03721 7.38831 4.51336C5.91216 5.9895 5.08182 7.9909 5.07944 10.0785C5.07944 12.0885 6.97244 15.8055 10.4084 20.5445C10.7001 20.9463 11.0828 21.2733 11.5252 21.4988C11.9675 21.7242 12.4569 21.8418 12.9534 21.8418C13.4499 21.8418 13.9394 21.7242 14.3817 21.4988C14.8241 21.2733 15.2067 20.9463 15.4984 20.5445C18.9344 15.8055 20.8274 12.0885 20.8274 10.0785C20.8251 7.9909 19.9947 5.9895 18.5186 4.51336C17.0424 3.03721 15.041 2.20687 12.9534 2.20448Z" fill="#CDB494"/>
</g>
<defs>
<clipPath id="clip0_17210_433">
<rect width="24" height="24" fill="white" transform="translate(0.953125 0.0234375)"/>
</clipPath>
</defs>
</svg>
