<svg width="64" height="65" viewBox="0 0 64 65" fill="none" xmlns="http://www.w3.org/2000/svg">
<g clip-path="url(#clip0_17208_280)">
<path d="M63.4349 13.897C63.0759 13.5978 62.6064 13.4746 62.147 13.559C62.1464 13.5591 62.1456 13.5593 62.1449 13.5594C59.5294 14.0455 56.0564 14.5424 50.1273 14.5424C42.4025 14.5424 38.6489 13.7178 34.6749 12.8449C30.7775 11.9888 26.7475 11.1035 18.8174 11.1035C16.1025 11.1035 13.7092 11.2043 11.4989 11.4116C10.6891 11.4895 10.0786 12.1615 10.0786 12.9749V22.4858C9.63375 22.48 9.18625 22.4761 8.7375 22.4761C6.03125 22.4761 3.638 22.5773 1.42237 22.7853C0.611625 22.86 0 23.5316 0 24.3473V49.9698C0 50.4093 0.186 50.8314 0.510375 51.1276C0.835625 51.4246 1.27375 51.5721 1.71463 51.5321C3.83638 51.337 6.13363 51.2423 8.73763 51.2423C16.4646 51.2423 20.219 52.067 24.1938 52.94C27.9048 53.7551 31.7421 54.5981 38.9449 54.676H38.9552C39.4683 54.676 39.8869 54.2629 39.8925 53.7486C39.898 53.2309 39.4829 52.8066 38.9651 52.801C31.9556 52.7254 28.3808 51.94 24.596 51.1088C20.6984 50.2525 16.6681 49.3673 8.73763 49.3673C6.20988 49.3673 3.9605 49.455 1.87513 49.6355V24.6266C3.9555 24.4414 6.20413 24.3511 8.73763 24.3511C9.18663 24.3511 9.63412 24.3551 10.0787 24.3609V26.2776C9.369 26.2676 8.55425 26.266 7.82188 26.2724C7.30788 26.2769 6.89313 26.6945 6.89237 27.2085C6.89062 28.4059 5.91712 29.3879 4.72237 29.3974C4.20762 29.4015 3.7925 29.8201 3.7925 30.3349V35.1336C3.7925 35.6515 4.21212 36.0711 4.73 36.0711C5.24788 36.0711 5.6675 35.6515 5.6675 35.1336V31.1564C7.14138 30.7944 8.3055 29.6216 8.65763 28.1436C9.14913 28.1433 9.6305 28.1465 10.0787 28.1529V38.5961C10.0787 39.0363 10.265 39.4585 10.5899 39.7551C10.9152 40.0521 11.3529 40.1988 11.7934 40.1596C13.9142 39.9645 16.2119 39.8699 18.8175 39.8699C19.0844 39.8699 19.3454 39.8711 19.6029 39.873C19.7521 42.5458 20.6088 44.9385 21.9071 46.6736C18.6713 46.0621 14.7404 45.5719 8.70662 45.5749C8.53475 44.8453 8.16237 44.1764 7.61675 43.6344C7.07075 43.0919 6.39913 42.7236 5.6675 42.5563V39.5198C5.6675 39.0019 5.24788 38.5823 4.73 38.5823C4.21212 38.5823 3.7925 39.0019 3.7925 39.5198V43.3911C3.7925 43.6409 3.89225 43.8804 4.0695 44.0564C4.24512 44.2309 4.48263 44.3286 4.73 44.3286C4.73737 44.3286 4.74538 44.3285 4.75313 44.3285C5.335 44.3285 5.88212 44.554 6.29525 44.9644C6.7115 45.378 6.9405 45.9289 6.94 46.5154C6.93975 46.7656 7.03962 47.0055 7.21737 47.1818C7.39512 47.3579 7.636 47.4521 7.886 47.4536C15.7068 47.3345 21.1642 48.3364 25.0094 49.2361C28.8783 50.086 32.5328 50.8886 40.0488 50.8886C42.3959 50.8886 44.4709 50.8116 46.3921 50.653C46.8773 50.613 47.251 50.2083 47.2525 49.7216C47.256 48.5684 48.1217 47.6299 49.266 47.5383C49.7533 47.4993 50.1287 47.0925 50.1287 46.6036V43.3086C50.7974 43.3086 51.4346 43.302 52.0462 43.2901V51.8281C50.1006 52.1901 47.3671 52.6064 43.3116 52.7505C42.7941 52.7689 42.3896 53.2033 42.408 53.7208C42.426 54.2269 42.842 54.6249 43.3442 54.6249C43.3555 54.6249 43.3669 54.6246 43.3781 54.6243C47.736 54.4694 50.6195 54.008 52.644 53.6235C53.384 53.4835 53.9211 52.8348 53.9211 52.081V43.2339C57.9001 43.0691 60.581 42.6566 62.722 42.251C63.4625 42.1116 63.9999 41.4629 63.9999 40.7085V15.1035C64 14.636 63.7941 14.1961 63.4349 13.897ZM26.9604 47.6509C24.1619 47.6509 21.7705 44.1853 21.4816 39.9056C26.3334 40.041 29.4335 40.5458 32.2921 41.1404C31.6601 44.8938 29.4385 47.6509 26.9604 47.6509ZM45.4719 48.8424C43.8167 48.9574 42.034 49.0135 40.0486 49.0135C35.7954 49.0135 32.8135 48.7489 30.3202 48.3648C30.8787 47.9554 31.4035 47.4446 31.8792 46.8355C32.986 45.4183 33.77 43.5596 34.1264 41.5353C37.8324 42.3473 41.4383 43.1566 48.2537 43.2905V45.8305C46.846 46.2536 45.7844 47.4028 45.4719 48.8424ZM62.125 40.4554C59.4784 40.9469 55.9662 41.4335 50.1275 41.4335C42.4027 41.4335 38.6491 40.609 34.6751 39.7361C30.7778 38.88 26.7477 37.9948 18.8176 37.9948C16.2885 37.9948 14.0389 38.0825 11.9539 38.2629V13.2529C14.0267 13.0683 16.2756 12.9785 18.8176 12.9785C26.5443 12.9785 30.2984 13.8031 34.273 14.6763C38.1699 15.5323 42.1994 16.4174 50.1276 16.4174C55.9595 16.4174 59.5964 15.9245 62.1251 15.4691V40.4554H62.125Z" fill="#CDB494"/>
<path d="M33.8641 16.5487C30.1519 15.6727 25.0995 14.7786 17.9044 14.8997C17.3901 14.9041 16.9752 15.3222 16.9749 15.8366C16.974 17.0335 16.0005 18.0152 14.8049 18.0247C14.2901 18.0289 13.875 18.4475 13.875 18.9622V32.0184C13.875 32.2681 13.9747 32.5076 14.152 32.6836C14.3276 32.8581 14.5651 32.9559 14.8125 32.9559C14.82 32.9557 14.8276 32.9557 14.8355 32.9557C15.4174 32.9557 15.9646 33.1814 16.3778 33.5917C16.794 34.0054 17.023 34.5561 17.0226 35.1427C17.0225 35.3929 17.1223 35.6327 17.2999 35.8089C17.4775 35.985 17.7168 36.0819 17.9683 36.0809C19.4411 36.0672 21.0105 36.0901 22.3932 36.1409C22.8949 36.1409 23.3105 35.7439 23.3295 35.2385C23.3488 34.721 22.9451 34.2859 22.4277 34.2665C21.2786 34.2234 20.05 34.2017 18.7892 34.2021C18.6174 33.4725 18.2449 32.8036 17.6992 32.2616C17.1534 31.7191 16.4816 31.3507 15.75 31.1834V19.7837C17.2248 19.4217 18.389 18.249 18.7406 16.7709C26.1858 16.7661 29.732 17.5589 33.691 18.4304C32.9629 18.9486 32.2941 19.6384 31.7119 20.49C30.3887 22.4249 29.6601 24.9725 29.6601 27.6634C29.6601 30.6707 30.5556 33.3849 31.9859 35.3005C30.4704 35.0152 28.809 34.7557 26.8514 34.5616C26.3341 34.5114 25.8769 34.887 25.8259 35.4021C25.7749 35.9174 26.1511 36.3765 26.6664 36.4276C30.1032 36.7684 32.6255 37.3217 35.0646 37.8571C38.9591 38.7122 42.5961 39.515 50.1314 39.516C52.4801 39.516 54.5555 39.4389 56.4761 39.2802C56.9615 39.2402 57.3354 38.835 57.3365 38.348C57.3391 37.1954 58.2041 36.257 59.3489 36.1654C59.836 36.1264 60.2115 35.7197 60.2115 35.2309V22.2096C60.2115 21.9505 60.1042 21.7029 59.9152 21.5256C59.7262 21.3485 59.4717 21.2557 59.2137 21.274C58.6025 21.3144 58.0185 21.1039 57.5714 20.6835C57.1271 20.2659 56.8835 19.7012 56.8853 19.0932C56.886 18.8334 56.7787 18.5849 56.5892 18.407C56.3995 18.229 56.1453 18.1387 55.8854 18.1552C54.1025 18.2741 52.1666 18.3345 50.1315 18.3345C41.9926 18.3347 37.8607 17.4269 33.8641 16.5487ZM56.2869 22.0497C56.8589 22.5876 57.5745 22.9445 58.3364 23.0856V34.4622C56.9494 34.8914 55.879 36.0506 55.5595 37.4696C53.9038 37.5847 52.1194 37.641 50.1312 37.641C45.8884 37.641 42.9105 37.3776 40.4209 36.9949C42.666 35.3449 44.2519 32.1011 44.413 28.288C44.4349 27.7706 44.0332 27.3336 43.5159 27.3117C43.003 27.2889 42.5614 27.6915 42.5396 28.2089C42.3515 32.6626 39.886 36.286 37.0438 36.286C34.0576 36.286 31.535 32.3374 31.535 27.6635C31.535 23.071 34.0578 19.191 37.0438 19.191C39.1625 19.191 41.1225 21.1266 42.037 24.1222C42.1881 24.6176 42.7124 24.8962 43.2072 24.7451C43.7025 24.594 43.9814 24.07 43.8301 23.5749C43.3805 22.1021 42.7048 20.8325 41.8741 19.828C44.1429 20.0621 46.8108 20.2097 50.1311 20.2097C51.8786 20.2097 53.5564 20.166 55.1314 20.0797C55.319 20.8265 55.7176 21.5147 56.2869 22.0497Z" fill="#CDB494"/>
<path d="M48.5 28.7656C48.5 29.2835 48.9196 29.7031 49.4375 29.7031H53.32C53.8379 29.7031 54.2575 29.2835 54.2575 28.7656C54.2575 28.2477 53.8379 27.8281 53.32 27.8281H49.4375C48.9197 27.8281 48.5 28.2477 48.5 28.7656Z" fill="#CDB494"/>
<path d="M24.6403 24.5488H20.7578C20.2399 24.5488 19.8203 24.9685 19.8203 25.4863C19.8203 26.0042 20.2399 26.4238 20.7578 26.4238H24.6403C25.1582 26.4238 25.5778 26.0042 25.5778 25.4863C25.5778 24.9685 25.1581 24.5488 24.6403 24.5488Z" fill="#CDB494"/>
</g>
<defs>
<clipPath id="clip0_17208_280">
<rect width="64" height="64" fill="white" transform="translate(0 0.890625)"/>
</clipPath>
</defs>
</svg>
