<svg width="36" height="37" viewBox="0 0 36 37" fill="none" xmlns="http://www.w3.org/2000/svg">
<g clip-path="url(#clip0_17154_122)">
<path d="M18.0018 36.791L13.2702 33.3533H7.42166L5.61439 27.791L0.882812 24.3533L2.69008 18.791L0.882812 13.2287L5.61439 9.79102L7.42166 4.22869H13.2702L18.0018 0.791016L22.7334 4.22876H28.5819L30.3892 9.79109L35.1208 13.2288L33.3135 18.7911L35.1208 24.3534L30.3892 27.7911L28.5819 33.3534H22.7334L18.0018 36.791ZM9.46544 30.5403H14.1842L18.0018 33.3139L21.8194 30.5403H26.5381L27.9964 26.0525L31.8139 23.2789L30.3558 18.7911L31.8139 14.3033L27.9964 11.5297L26.5381 7.04189H21.8194L18.0018 4.26829L14.1842 7.04189H9.46544L8.00718 11.5297L4.18969 14.3033L5.6478 18.7911L4.18969 23.2789L8.00718 26.0525L9.46544 30.5403ZM16.2613 24.7583L10.7913 19.2884L12.7805 17.2992L16.2613 20.7801L23.2231 13.8184L25.2122 15.8075L16.2613 24.7583Z" fill="white"/>
</g>
<defs>
<clipPath id="clip0_17154_122">
<rect width="36" height="36" fill="white" transform="translate(0 0.791016)"/>
</clipPath>
</defs>
</svg>
