<svg width="36" height="37" viewBox="0 0 36 37" fill="none" xmlns="http://www.w3.org/2000/svg">
<g clip-path="url(#clip0_17154_125)">
<path d="M14.6458 8.74143L0 23.3761L10.4391 33.8152L14.1538 30.1059L13.5587 35.0251L28.2175 36.7845L30.6578 16.5139L25.4377 9.86978L26.8773 8.4302C28.9158 9.77846 31.7061 9.56671 33.5133 7.75959L35.0749 6.19789C36.3083 4.96444 36.3083 2.95737 35.0749 1.72392C33.8414 0.490465 31.8343 0.490465 30.6009 1.72392C29.464 2.86078 24.691 7.63374 23.5833 8.7415L14.6458 8.74143ZM2.98328 23.3767L15.519 10.8505H22.9955V18.2964L10.4403 30.8337L2.98328 23.3767ZM28.4593 17.1296L26.3755 34.4393L15.9059 33.1826L16.5702 27.6929L25.1045 19.1708V12.8597L28.4593 17.1296ZM32.0922 3.21524C32.5043 2.80313 33.1713 2.80306 33.5835 3.21524C33.9947 3.62644 33.9947 4.29544 33.5835 4.70657L32.0219 6.26819C31.0497 7.24033 29.5971 7.44639 28.4213 6.88608L32.0922 3.21524Z" fill="white"/>
<path d="M18.0643 14.2598L16.446 15.8781C15.2949 15.327 13.8375 15.5038 12.8447 16.4968C11.6112 17.7302 11.6111 19.7373 12.8446 20.9708C12.8516 20.9743 12.8517 20.9743 12.8446 20.9708C13.2566 21.3829 13.2568 22.05 12.8446 22.4622C12.4325 22.8743 11.7655 22.8743 11.3533 22.4622C10.9411 22.05 10.9411 21.383 11.3533 20.9708L9.86195 19.4795C8.86998 20.4714 8.69156 21.9286 9.24322 23.081L7.625 24.6992L9.11632 26.1905L10.7346 24.5722C11.8867 25.1237 13.344 24.9456 14.336 23.9535C15.5723 22.7172 15.5725 20.716 14.336 19.4795C13.9248 19.0683 13.9249 18.3993 14.3361 17.9881C14.7481 17.576 15.4152 17.576 15.8274 17.9881C16.2385 18.3992 16.2385 19.0683 15.8274 19.4794L17.3187 20.9708C17.9163 20.3732 18.2453 19.5788 18.2453 18.7337C18.2453 18.2536 18.1388 17.7899 17.9374 17.3693L19.5557 15.751L18.0643 14.2598Z" fill="white"/>
</g>
<defs>
<clipPath id="clip0_17154_125">
<rect width="36" height="36" fill="white" transform="translate(0 0.791016)"/>
</clipPath>
</defs>
</svg>
