<svg width="36" height="37" viewBox="0 0 36 37" fill="none" xmlns="http://www.w3.org/2000/svg">
<g clip-path="url(#clip0_17154_129)">
<path d="M11.9606 14.5562L9.97155 16.5452L16.5919 23.1655L26.0252 13.7323L24.0361 11.7433L16.5918 19.1875L11.9606 14.5562ZM17.9983 0.791016L2.52734 3.84653V14.4673C2.52734 19.2403 3.9409 23.8561 6.61512 27.8156C9.29223 31.7795 13.0479 34.8109 17.4759 36.5821L17.9983 36.791L18.5207 36.5821C22.9487 34.8109 26.7044 31.7795 29.3815 27.8156C32.0557 23.8561 33.4693 19.2403 33.4693 14.4673V3.84653L17.9983 0.791016ZM30.6564 14.4673C30.6564 22.9228 25.7071 30.4316 17.9983 33.7534C10.2895 30.4316 5.34024 22.9228 5.34024 14.4673V6.15824L17.9983 3.65828L30.6564 6.15824V14.4673Z" fill="white"/>
</g>
<defs>
<clipPath id="clip0_17154_129">
<rect width="36" height="36" fill="white" transform="translate(0 0.791016)"/>
</clipPath>
</defs>
</svg>
