<svg width="40" height="41" viewBox="0 0 40 41" fill="none" xmlns="http://www.w3.org/2000/svg">
<g clip-path="url(#clip0_17154_133)">
<path d="M40 19.5338L35.618 11.5585H31.2036V8.43555H3.61741V13.146H0V15.4882H3.61741V17.6449H0V19.9872H3.61741V22.0985H0V24.4408H3.61741V26.8611H1.71763V29.2033H8.45528C8.65406 31.5294 10.6097 33.3618 12.9863 33.3618C15.363 33.3618 17.3186 31.5294 17.5174 29.2033H25.5015C25.7002 31.5294 27.6558 33.3618 30.0325 33.3618C32.4092 33.3618 34.3648 31.5294 34.5635 29.2033H40V19.5338ZM36.8492 18.6633H31.2037V13.9007H34.2324L36.8492 18.6633ZM12.9863 31.0196C11.7695 31.0196 10.7796 30.0297 10.7796 28.8129C10.7796 27.5961 11.7695 26.6061 12.9863 26.6061C14.2031 26.6061 15.193 27.5961 15.193 28.8129C15.193 30.0297 14.2031 31.0196 12.9863 31.0196ZM25.9245 26.8611H17.0944C16.3626 25.3268 14.7964 24.2639 12.9864 24.2639C11.1764 24.2639 9.61023 25.3268 8.87837 26.8611H5.95964V24.4408H8.19779V22.0985H5.95964V19.9872H14.6519V17.6449H5.95964V15.4882H8.66624V13.146H5.95964V10.7778H28.8614V24.4176C27.5638 24.7636 26.4927 25.67 25.9245 26.8611ZM30.0326 31.0196C28.8158 31.0196 27.8259 30.0297 27.8259 28.8129C27.8259 27.5961 28.8158 26.6061 30.0326 26.6061C31.2494 26.6061 32.2393 27.5961 32.2393 28.8129C32.2393 30.0297 31.2493 31.0196 30.0326 31.0196ZM34.1406 26.8611C33.5724 25.67 32.5013 24.7636 31.2037 24.4176V21.0055H33.2596V23.2696H35.6018V21.0055H37.6578V26.8611H34.1406Z" fill="white"/>
</g>
<defs>
<clipPath id="clip0_17154_133">
<rect width="40" height="40" fill="white" transform="translate(0 0.898438)"/>
</clipPath>
</defs>
</svg>
